<?xml version="1.0" encoding="UTF-8"?>
<svg version="1.1" xmlns="http://www.w3.org/2000/svg" width="1181" height="1181">
<path d="M0 0 C1.13020569 -0.00974854 2.26041138 -0.01949707 3.42486572 -0.02954102 C29.22616073 -0.20608386 54.42780404 0.29877542 79.94140625 4.23828125 C81.20791016 4.42551758 82.47441406 4.61275391 83.77929688 4.80566406 C124.68502337 10.93834548 164.90190889 22.17595427 202.56640625 39.30078125 C203.63342773 39.78329346 204.70044922 40.26580566 205.79980469 40.76293945 C215.05964794 45.06298098 223.96850005 49.94104692 231.44140625 56.98828125 C231.91441162 57.43091309 232.38741699 57.87354492 232.87475586 58.32958984 C238.72812618 63.8693051 244.33533436 69.66690945 250.00830078 75.38964844 C254.92226455 80.31440782 259.85260537 84.92596601 265.33984375 89.20703125 C268.44827525 91.63403482 271.44227827 94.17845477 274.44140625 96.73828125 C281.07769649 102.37776246 287.81204119 107.89196616 294.578125 113.375 C301.53396631 119.03106366 308.34845231 124.83750622 315.13867188 130.68994141 C316.91626538 132.21668816 318.7009264 133.73469833 320.48828125 135.25 C331.68316719 144.7519856 342.40852711 154.62776704 352.81640625 164.98828125 C353.51805908 165.68526123 354.21971191 166.38224121 354.94262695 167.1003418 C359.47872682 171.65046361 363.76719247 176.35545094 367.94140625 181.23828125 C368.42802734 181.79692871 368.91464844 182.35557617 369.41601562 182.93115234 C384.66909714 200.53933482 397.42849455 220.6332272 408.68798828 240.984375 C409.96979535 243.28933076 411.27952642 245.57667586 412.59375 247.86328125 C431.130843 280.41923868 444.88129528 315.84499897 456.94140625 351.23828125 C457.35535645 352.4382373 457.76930664 353.63819336 458.19580078 354.87451172 C480.66110119 420.38617121 498.97192436 490.07496573 508.87890625 558.67578125 C509.05421875 559.88435791 509.22953125 561.09293457 509.41015625 562.33813477 C512.60128534 586.19465148 514.16109837 610.29395454 515.71113491 634.3010149 C517.62909086 663.98451612 520.06380448 693.59935072 522.79950333 723.2182312 C526.66980285 765.19870361 530.15706818 806.91955264 530.25390625 849.11328125 C530.25982788 850.85810791 530.25982788 850.85810791 530.26586914 852.63818359 C530.30371039 875.71476326 529.14542183 898.77015135 525.75390625 921.61328125 C525.6517984 922.32368561 525.54969055 923.03408997 525.44448853 923.76602173 C523.2178601 939.14531222 519.79607692 954.19220004 515.94140625 969.23828125 C521.43622953 973.17152677 526.8891799 976.92788864 532.81640625 980.17578125 C551.55218004 990.69962907 567.59663296 1002.16079524 574.21484375 1023.51171875 C577.07906136 1034.26023431 578.41586124 1048.9640089 573.25390625 1059.14453125 C572.60421875 1060.1809375 572.60421875 1060.1809375 571.94140625 1061.23828125 C571.22984375 1062.3984375 571.22984375 1062.3984375 570.50390625 1063.58203125 C561.09666213 1077.15017181 543.99858125 1082.26667137 528.5 1085.2421875 C527.62657959 1085.41192078 526.75315918 1085.58165405 525.85327148 1085.75653076 C523.21791875 1086.26158828 520.58057183 1086.75357012 517.94140625 1087.23828125 C516.83637253 1087.44159561 516.83637253 1087.44159561 515.70901489 1087.64901733 C510.63630711 1088.56105519 505.55185315 1089.32082183 500.44140625 1089.98828125 C499.61276062 1090.09733795 498.78411499 1090.20639465 497.93035889 1090.3187561 C474.28626005 1093.27815774 450.37482522 1092.59250089 426.59570312 1092.31738281 C397.08660181 1091.00216319 397.08660181 1091.00216319 368.96484375 1098.2890625 C368.00336426 1098.74659912 368.00336426 1098.74659912 367.02246094 1099.21337891 C364.72835052 1100.34320945 362.44798178 1101.49824101 360.16796875 1102.65625 C292.95286286 1136.47250682 209.33847187 1148.63967104 135.31640625 1157.17578125 C134.4356543 1157.27755676 133.55490234 1157.37933228 132.64746094 1157.48419189 C113.03284927 1159.72376103 93.59348699 1160.46816971 73.86303711 1160.71508789 C34.00005534 1160.43976845 34.00005534 1160.43976845 -1.671875 1175.625 C-22.15933917 1189.47331866 -58.97679047 1180.3544423 -81.56054688 1177.08227539 C-97.24214133 1174.82004341 -112.9034312 1173.08313557 -128.68359375 1171.67578125 C-144.95004022 1170.20514587 -161.13720888 1168.47667751 -177.30859375 1166.17578125 C-178.5817746 1165.99847977 -178.5817746 1165.99847977 -179.88067627 1165.81759644 C-194.6071033 1163.74887976 -208.43498464 1160.77778191 -222.30078125 1155.32421875 C-232.439872 1151.33930912 -242.60594247 1148.42828717 -253.18359375 1145.86328125 C-254.14716797 1145.62482483 -255.11074219 1145.38636841 -256.10351562 1145.14068604 C-280.89974514 1139.01225208 -305.90419412 1133.74122589 -330.89048767 1128.45305157 C-349.16734855 1124.58318209 -367.37810178 1120.53848541 -385.50390625 1116.0078125 C-386.72120926 1115.7046216 -386.72120926 1115.7046216 -387.96310425 1115.39530563 C-420.01338501 1107.38514156 -451.09405963 1096.69120623 -482.05859375 1085.23828125 C-483.12808258 1084.84482513 -483.12808258 1084.84482513 -484.21917725 1084.44342041 C-510.297292 1074.84862034 -534.91983774 1063.57876494 -556.05859375 1045.23828125 C-556.67089844 1044.72265625 -557.28320312 1044.20703125 -557.9140625 1043.67578125 C-581.80347414 1021.8859141 -591.65127338 982.74911103 -593.4375 951.76171875 C-594.24209739 928.55217858 -586.68537559 907.37801772 -578.71484375 885.89453125 C-564.42968122 847.33644733 -563.1600539 809.20660106 -564.4609375 768.35546875 C-564.50356674 766.96664993 -564.5460067 765.5778253 -564.58827209 764.18899536 C-564.69926313 760.56046039 -564.81306463 756.93201886 -564.9274292 753.30358887 C-565.01779817 750.42093905 -565.10608965 747.53822748 -565.19426823 744.65550995 C-565.72948438 727.08135799 -565.72948438 727.08135799 -566.34155273 709.50976562 C-566.90443839 694.3318761 -567.26390735 679.17704142 -567.24609375 663.98828125 C-567.24515717 662.92367676 -567.24422058 661.85907227 -567.24325562 660.76220703 C-567.07245709 569.7459444 -558.59421385 475.38525297 -455.05859375 222.23828125 C-454.43275391 221.33126465 -453.80691406 220.42424805 -453.16210938 219.48974609 C-432.27353472 189.25776845 -410.25904202 160.43248293 -384.30859375 134.36328125 C-383.61169434 133.66170898 -382.91479492 132.96013672 -382.19677734 132.23730469 C-375.09015747 125.15258243 -367.50498737 118.71706305 -359.74609375 112.36328125 C-359.00480225 111.75468262 -358.26351074 111.14608398 -357.49975586 110.51904297 C-356.02539295 109.30897231 -354.55055464 108.0994806 -353.07519531 106.890625 C-351.3367646 105.46620623 -349.59966219 104.04019702 -347.86328125 102.61328125 C-345.26637537 100.48248668 -342.66456742 98.35797276 -340.05859375 96.23828125 C-339.30191406 95.62210937 -338.54523438 95.0059375 -337.765625 94.37109375 C-259.82757134 31.44623301 -167.98548916 17.83088743 -43.0859375 3.4609375 C-42.14413446 3.35426632 -41.20233143 3.24759514 -40.23198891 3.1376915 C-34.50899023 2.49076269 -28.78497985 1.85453736 -23.05859375 1.23828125 C-21.98348038 1.12252243 -20.908367 1.00676361 -19.80067444 0.88749695 C-13.19861144 0.22915461 -6.63262587 0.04766111 0 0 Z " fill="#686B7E" transform="translate(599.05859375,-0.23828125)"/>
<path d="M0 0 C1.00145554 -0.00570007 2.00291107 -0.01140015 3.03471375 -0.01727295 C5.14658574 -0.02666447 7.25847201 -0.03323346 9.37036133 -0.03710938 C12.52778303 -0.04673346 15.68452958 -0.07778011 18.84179688 -0.109375 C37.15401559 -0.2065023 54.69788322 1.86116412 72.44921875 6.390625 C73.63265869 6.69033203 74.81609863 6.99003906 76.03540039 7.29882812 C86.00090011 9.93150593 95.11002983 13.50476638 104.26171875 18.203125 C105.43605469 18.77933594 106.61039063 19.35554687 107.8203125 19.94921875 C115.61168792 23.92291199 122.46775641 28.71305442 129.26171875 34.203125 C129.81472656 34.64785156 130.36773438 35.09257813 130.9375 35.55078125 C177.971939 73.66672617 199.59640465 130.65554074 213.19970703 187.91748047 C214.0139352 191.33743463 214.84599636 194.75271322 215.6796875 198.16796875 C225.09502685 237.15374565 225.09502685 237.15374565 224.63671875 256.390625 C224.63542969 257.46119141 224.63414062 258.53175781 224.6328125 259.63476562 C224.2676453 293.25043511 209.20875175 325.74722408 189.26171875 352.203125 C188.53726562 353.16992188 187.8128125 354.13671875 187.06640625 355.1328125 C157.58324884 392.66672138 113.96653873 404.66883101 70.24630737 418.62796021 C64.40389843 420.49891438 58.58349479 422.4257658 52.77734375 424.40625 C5.40909779 440.55386459 -42.88438463 452.33514894 -92.36932373 459.84106445 C-94.5991302 460.18185779 -96.82736632 460.53117982 -99.05517578 460.88476562 C-139.68653624 467.32161918 -180.69446174 471.06480672 -221.73828125 473.578125 C-222.43881496 473.62115376 -223.13934868 473.66418251 -223.86111069 473.70851517 C-228.52800745 473.9940832 -233.19541884 474.26965419 -237.86328125 474.5390625 C-239.03578934 474.60748856 -240.20829742 474.67591461 -241.41633606 474.74641418 C-247.53530589 475.08590052 -253.60997628 475.27195506 -259.73828125 475.203125 C-259.7640625 474.1409375 -259.78984375 473.07875 -259.81640625 471.984375 C-260.21531319 460.73785879 -261.80114163 453.63718442 -269.73828125 445.203125 C-271.82101264 443.52573954 -273.88298529 441.94357264 -276.05078125 440.390625 C-289.28186208 430.57238252 -289.28186208 430.57238252 -291.73828125 423.203125 C-293.5667773 396.63768954 -285.60092881 371.23632357 -279.24951172 345.71801758 C-276.27615768 333.73533382 -273.49903183 321.75356039 -271.11328125 309.640625 C-261.62912631 261.90057176 -247.17484206 215.31406345 -231.73828125 169.203125 C-231.31228638 167.93027649 -231.31228638 167.93027649 -230.87768555 166.63171387 C-210.66904525 106.32406108 -192.16564109 63.13260403 -132.984375 33.22265625 C-113.62997165 23.70926735 -93.54773436 16.75086696 -72.73828125 11.203125 C-71.68930664 10.92098145 -70.64033203 10.63883789 -69.55957031 10.34814453 C-46.95194233 4.35546339 -23.44438645 0.1068537 0 0 Z " fill="#BBD1E7" transform="translate(873.73828125,665.796875)"/>
<path d="M0 0 C1.13020569 -0.00974854 2.26041138 -0.01949707 3.42486572 -0.02954102 C29.22616073 -0.20608386 54.42780404 0.29877542 79.94140625 4.23828125 C81.20791016 4.42551758 82.47441406 4.61275391 83.77929688 4.80566406 C124.68502337 10.93834548 164.90190889 22.17595427 202.56640625 39.30078125 C203.63342773 39.78329346 204.70044922 40.26580566 205.79980469 40.76293945 C215.05964794 45.06298098 223.96850005 49.94104692 231.44140625 56.98828125 C231.91441162 57.43091309 232.38741699 57.87354492 232.87475586 58.32958984 C238.72812618 63.8693051 244.33533436 69.66690945 250.00830078 75.38964844 C254.92226455 80.31440782 259.85260537 84.92596601 265.33984375 89.20703125 C268.44827525 91.63403482 271.44227827 94.17845477 274.44140625 96.73828125 C281.07769649 102.37776246 287.81204119 107.89196616 294.578125 113.375 C301.53396631 119.03106366 308.34845231 124.83750622 315.13867188 130.68994141 C316.91626538 132.21668816 318.7009264 133.73469833 320.48828125 135.25 C331.68316719 144.7519856 342.40852711 154.62776704 352.81640625 164.98828125 C353.51805908 165.68526123 354.21971191 166.38224121 354.94262695 167.1003418 C359.47872682 171.65046361 363.76719247 176.35545094 367.94140625 181.23828125 C368.42802734 181.79692871 368.91464844 182.35557617 369.41601562 182.93115234 C384.66909714 200.53933482 397.42849455 220.6332272 408.68798828 240.984375 C409.96979535 243.28933076 411.27952642 245.57667586 412.59375 247.86328125 C431.130843 280.41923868 444.88129528 315.84499897 456.94140625 351.23828125 C457.35535645 352.4382373 457.76930664 353.63819336 458.19580078 354.87451172 C480.66110119 420.38617121 498.97192436 490.07496573 508.87890625 558.67578125 C509.05421875 559.88435791 509.22953125 561.09293457 509.41015625 562.33813477 C512.60128534 586.19465148 514.16109837 610.29395454 515.71113491 634.3010149 C517.62909086 663.98451612 520.06380448 693.59935072 522.79950333 723.2182312 C526.66980285 765.19870361 530.15706818 806.91955264 530.25390625 849.11328125 C530.25982788 850.85810791 530.25982788 850.85810791 530.26586914 852.63818359 C530.30371039 875.71476326 529.14542183 898.77015135 525.75390625 921.61328125 C525.6517984 922.32368561 525.54969055 923.03408997 525.44448853 923.76602173 C523.2178601 939.14531222 519.79607692 954.19220004 515.94140625 969.23828125 C521.43622953 973.17152677 526.8891799 976.92788864 532.81640625 980.17578125 C551.55218004 990.69962907 567.59663296 1002.16079524 574.21484375 1023.51171875 C577.07906136 1034.26023431 578.41586124 1048.9640089 573.25390625 1059.14453125 C572.60421875 1060.1809375 572.60421875 1060.1809375 571.94140625 1061.23828125 C571.22984375 1062.3984375 571.22984375 1062.3984375 570.50390625 1063.58203125 C561.09666213 1077.15017181 543.99858125 1082.26667137 528.5 1085.2421875 C527.62657959 1085.41192078 526.75315918 1085.58165405 525.85327148 1085.75653076 C523.21791875 1086.26158828 520.58057183 1086.75357012 517.94140625 1087.23828125 C516.83637253 1087.44159561 516.83637253 1087.44159561 515.70901489 1087.64901733 C510.63630711 1088.56105519 505.55185315 1089.32082183 500.44140625 1089.98828125 C499.61276062 1090.09733795 498.78411499 1090.20639465 497.93035889 1090.3187561 C474.28626005 1093.27815774 450.37482522 1092.59250089 426.59570312 1092.31738281 C397.08660181 1091.00216319 397.08660181 1091.00216319 368.96484375 1098.2890625 C368.00336426 1098.74659912 368.00336426 1098.74659912 367.02246094 1099.21337891 C364.72835052 1100.34320945 362.44798178 1101.49824101 360.16796875 1102.65625 C292.95286286 1136.47250682 209.33847187 1148.63967104 135.31640625 1157.17578125 C134.4356543 1157.27755676 133.55490234 1157.37933228 132.64746094 1157.48419189 C113.03284927 1159.72376103 93.59348699 1160.46816971 73.86303711 1160.71508789 C34.00005534 1160.43976845 34.00005534 1160.43976845 -1.671875 1175.625 C-22.15933917 1189.47331866 -58.97679047 1180.3544423 -81.56054688 1177.08227539 C-97.24214133 1174.82004341 -112.9034312 1173.08313557 -128.68359375 1171.67578125 C-144.95004022 1170.20514587 -161.13720888 1168.47667751 -177.30859375 1166.17578125 C-178.5817746 1165.99847977 -178.5817746 1165.99847977 -179.88067627 1165.81759644 C-194.6071033 1163.74887976 -208.43498464 1160.77778191 -222.30078125 1155.32421875 C-232.439872 1151.33930912 -242.60594247 1148.42828717 -253.18359375 1145.86328125 C-254.14716797 1145.62482483 -255.11074219 1145.38636841 -256.10351562 1145.14068604 C-280.89974514 1139.01225208 -305.90419412 1133.74122589 -330.89048767 1128.45305157 C-349.16734855 1124.58318209 -367.37810178 1120.53848541 -385.50390625 1116.0078125 C-386.72120926 1115.7046216 -386.72120926 1115.7046216 -387.96310425 1115.39530563 C-420.01338501 1107.38514156 -451.09405963 1096.69120623 -482.05859375 1085.23828125 C-483.12808258 1084.84482513 -483.12808258 1084.84482513 -484.21917725 1084.44342041 C-510.297292 1074.84862034 -534.91983774 1063.57876494 -556.05859375 1045.23828125 C-556.67089844 1044.72265625 -557.28320312 1044.20703125 -557.9140625 1043.67578125 C-581.80347414 1021.8859141 -591.65127338 982.74911103 -593.4375 951.76171875 C-594.24209739 928.55217858 -586.68537559 907.37801772 -578.71484375 885.89453125 C-564.42968122 847.33644733 -563.1600539 809.20660106 -564.4609375 768.35546875 C-564.50356674 766.96664993 -564.5460067 765.5778253 -564.58827209 764.18899536 C-564.69926313 760.56046039 -564.81306463 756.93201886 -564.9274292 753.30358887 C-565.01779817 750.42093905 -565.10608965 747.53822748 -565.19426823 744.65550995 C-565.72948438 727.08135799 -565.72948438 727.08135799 -566.34155273 709.50976562 C-566.90443839 694.3318761 -567.26390735 679.17704142 -567.24609375 663.98828125 C-567.24515717 662.92367676 -567.24422058 661.85907227 -567.24325562 660.76220703 C-567.07245709 569.7459444 -558.59421385 475.38525297 -455.05859375 222.23828125 C-454.43275391 221.33126465 -453.80691406 220.42424805 -453.16210938 219.48974609 C-432.27353472 189.25776845 -410.25904202 160.43248293 -384.30859375 134.36328125 C-383.61169434 133.66170898 -382.91479492 132.96013672 -382.19677734 132.23730469 C-375.09015747 125.15258243 -367.50498737 118.71706305 -359.74609375 112.36328125 C-359.00480225 111.75468262 -358.26351074 111.14608398 -357.49975586 110.51904297 C-356.02539295 109.30897231 -354.55055464 108.0994806 -353.07519531 106.890625 C-351.3367646 105.46620623 -349.59966219 104.04019702 -347.86328125 102.61328125 C-345.26637537 100.48248668 -342.66456742 98.35797276 -340.05859375 96.23828125 C-339.30191406 95.62210937 -338.54523438 95.0059375 -337.765625 94.37109375 C-259.82757134 31.44623301 -167.98548916 17.83088743 -43.0859375 3.4609375 C-42.14413446 3.35426632 -41.20233143 3.24759514 -40.23198891 3.1376915 C-34.50899023 2.49076269 -28.78497985 1.85453736 -23.05859375 1.23828125 C-21.98348038 1.12252243 -20.908367 1.00676361 -19.80067444 0.88749695 C-13.19861144 0.22915461 -6.63262587 0.04766111 0 0 Z M-87.05859375 28.23828125 C-88.35555176 28.4172998 -89.65250977 28.59631836 -90.98876953 28.78076172 C-139.57951581 35.62461479 -188.62737851 46.28593538 -235.05859375 62.23828125 C-235.98945801 62.55684082 -236.92032227 62.87540039 -237.87939453 63.20361328 C-261.15561531 71.30569768 -282.70548817 82.38118539 -303.05859375 96.23828125 C-304.24219482 97.04362305 -304.24219482 97.04362305 -305.44970703 97.86523438 C-314.8960639 104.33792382 -324.07746024 111.13609541 -333.05859375 118.23828125 C-333.95578125 118.94082031 -334.85296875 119.64335938 -335.77734375 120.3671875 C-343.29802295 126.37267104 -350.25196204 132.93466114 -357.24365234 139.53662109 C-359.41654552 141.57389113 -361.61692545 143.57896552 -363.82373047 145.5793457 C-372.07274253 153.05933608 -380.1008634 160.75231792 -387.33203125 169.234375 C-389.27600421 171.49061511 -391.29182893 173.67192018 -393.30859375 175.86328125 C-397.80364629 180.84510767 -401.9296602 186.06102314 -406.03100586 191.36572266 C-407.93905689 193.82112971 -409.87232564 196.25038288 -411.84570312 198.65356445 C-418.69247233 207.0080701 -424.93461723 215.62187996 -430.86889648 224.64501953 C-432.24901135 226.74271584 -433.6401927 228.83272537 -435.03320312 230.921875 C-485.86986485 307.47566956 -513.39918324 393.62858841 -527.80859375 483.73828125 C-527.94566742 484.59262756 -528.08274109 485.44697388 -528.22396851 486.32720947 C-532.45183924 512.89679988 -535.55339132 539.56026554 -537.99804688 566.34448242 C-538.24587909 569.04096213 -538.50046505 571.73678765 -538.75487423 574.43265343 C-539.44602886 581.76551922 -540.10425179 589.10065439 -540.73287964 596.43914795 C-540.94253197 598.8845353 -541.15603102 601.32959748 -541.3742981 603.77423096 C-543.27276547 625.36418491 -543.33900234 646.87223922 -543.25582886 668.52700424 C-543.24595692 671.4031471 -543.24021678 674.27926983 -543.23583984 677.15542603 C-543.20440566 697.74921693 -543.14241444 718.33889836 -542.55859375 738.92578125 C-539.13491633 860.57327136 -539.13491633 860.57327136 -563.23852539 916.8918457 C-568.12520786 928.36625442 -570.60695277 938.14871209 -570.49609375 950.67578125 C-570.48707031 951.90425781 -570.47804688 953.13273438 -570.46875 954.3984375 C-569.92227666 983.48296303 -559.26929686 1010.22978723 -539.05859375 1031.23828125 C-537.90625949 1032.58692024 -536.76011266 1033.94087783 -535.62109375 1035.30078125 C-532.30471688 1039.08767383 -528.74171777 1042.49342858 -524.91796875 1045.7668457 C-523.11229099 1047.32754208 -521.34137217 1048.9302602 -519.6237793 1050.58740234 C-508.94611798 1060.03152605 -495.98542443 1062.79966456 -482.49609375 1066.48828125 C-479.89062976 1067.2193864 -477.28747788 1067.95859128 -474.68408203 1068.69702148 C-468.06941268 1070.56649899 -461.44359535 1072.39351184 -454.81378174 1074.20843506 C-451.30596931 1075.17043943 -447.8006795 1076.14098651 -444.29638672 1077.11572266 C-380.06586866 1094.96356396 -315.15794748 1111.26922047 -249.62451172 1123.55517578 C-243.80998044 1124.66903711 -238.0206912 1125.89779177 -232.23974609 1127.17382812 C-229.4375597 1127.78481572 -226.93864379 1128.23828125 -224.05859375 1128.23828125 C-223.81850586 1127.74650391 -223.57841797 1127.25472656 -223.33105469 1126.74804688 C-209.86429005 1099.45979568 -192.57948342 1079.14998434 -163.43359375 1068.36328125 C-142.83958817 1062.32912083 -122.02166127 1065.83128624 -101.29492188 1068.90893555 C-98.96440103 1069.25215308 -96.63277706 1069.58688077 -94.30078125 1069.91992188 C-48.70294384 1076.45457511 -48.70294384 1076.45457511 -31.17578125 1086.13671875 C-29.16065943 1087.3921342 -29.16065943 1087.3921342 -27.05859375 1087.23828125 C-27.01371826 1086.42488281 -26.96884277 1085.61148437 -26.92260742 1084.7734375 C-25.92829828 1067.16066878 -24.64607164 1049.7016947 -22.05859375 1032.23828125 C-21.90052246 1031.14918457 -21.74245117 1030.06008789 -21.57958984 1028.93798828 C-16.27318657 993.03454827 -7.17743843 957.86662959 2.01062012 922.79675293 C3.04704845 918.83440246 4.07895805 914.87088979 5.11035156 910.90722656 C47.3037345 748.82312802 47.3037345 748.82312802 84.94140625 718.23828125 C85.81152344 717.48160156 86.68164062 716.72492187 87.578125 715.9453125 C114.07373905 693.12866222 147.05762319 678.27092863 179.94140625 667.23828125 C180.69292969 666.98481934 181.44445312 666.73135742 182.21875 666.47021484 C207.72325638 657.90782956 233.23746083 652.55960719 259.94140625 649.23828125 C260.63104965 649.15092712 261.32069305 649.063573 262.03123474 648.97357178 C267.1786 648.35503283 272.24725674 648.06674055 277.4296875 648.03515625 C278.20648865 648.02814194 278.98328979 648.02112762 279.78363037 648.01390076 C282.27378216 647.99651178 284.76369598 647.99004921 287.25390625 647.98828125 C288.53187576 647.98726913 288.53187576 647.98726913 289.83566284 647.98623657 C302.4578756 648.00212702 314.57990181 648.4975194 326.94140625 651.23828125 C327.77269043 651.4098877 328.60397461 651.58149414 329.46044922 651.75830078 C367.88372875 659.73079286 401.8839455 676.95510537 430.94140625 703.23828125 C432.25044922 704.41970703 432.25044922 704.41970703 433.5859375 705.625 C440.7469607 712.43896231 446.56659707 720.24461363 452.41455078 728.17773438 C453.7572933 729.98981414 455.12250196 731.78074041 456.5 733.56640625 C482.33096317 768.00769048 496.94184832 810.57205872 505.94140625 852.23828125 C506.27140625 852.23828125 506.60140625 852.23828125 506.94140625 852.23828125 C507.06737499 842.12430455 506.69300649 832.09923648 506.05859375 822.0078125 C505.96293478 820.44085002 505.8675027 818.87387368 505.77227783 817.30688477 C505.46105284 812.22104352 505.13911982 807.13590426 504.81640625 802.05078125 C504.70422643 800.27176014 504.59206431 798.49273791 504.47991943 796.7137146 C499.08533411 711.40536595 492.12281205 626.1076996 369.94140625 224.23828125 C369.48765625 223.58230957 369.03390625 222.92633789 368.56640625 222.25048828 C362.63232822 213.68741279 356.65367464 205.21607899 349.94140625 197.23828125 C349.5036084 196.7170166 349.06581055 196.19575195 348.61474609 195.65869141 C335.68503323 180.30493085 322.26997559 164.9338038 306.91796875 151.93359375 C304.43280431 149.80204955 302.03700479 147.58144526 299.62890625 145.36328125 C295.16348859 141.29042778 290.57256478 137.43252397 285.87109375 133.63671875 C282.61769546 130.97327002 279.43437493 128.23788509 276.25390625 125.48828125 C271.15526341 121.08965989 265.98650497 116.78914285 260.75390625 112.55078125 C260.07658447 112.00212402 259.3992627 111.4534668 258.70141602 110.88818359 C255.77454586 108.52089881 252.84316313 106.15950974 249.90625 103.8046875 C241.9386935 97.37332175 234.36947062 90.52339223 227.0078125 83.41015625 C185.88564226 44.00283882 116.70203718 32.64764122 61.89880371 25.49542236 C60.02574839 25.24936118 58.15394846 24.99379977 56.28222656 24.73779297 C9.01473345 18.45408856 -39.99049461 21.6968066 -87.05859375 28.23828125 Z M238.94140625 669.23828125 C237.97009766 669.40457031 236.99878906 669.57085938 235.99804688 669.7421875 C182.17482146 679.0756948 113.33395602 699.31032435 79.671875 746.4140625 C63.92757743 769.68387307 55.99277966 796.68451363 47.29400635 823.11720276 C45.5265021 828.482782 43.73432673 833.83953224 41.92578125 839.19140625 C26.16967878 885.86301839 12.23590879 932.90648004 2.21507263 981.16621399 C0.89264422 987.521762 -0.52691299 993.85250788 -1.99609375 1000.17578125 C-2.22643311 1001.16980957 -2.45677246 1002.16383789 -2.6940918 1003.18798828 C-4.01650554 1008.86031814 -5.3652217 1014.52614204 -6.72544861 1020.1894989 C-7.53384143 1023.55674827 -8.33894427 1026.92478249 -9.14431763 1030.29275513 C-9.72550588 1032.71497705 -10.31261105 1035.13570775 -10.90014648 1037.55639648 C-15.91309709 1058.22447911 -15.91309709 1058.22447911 -17.49609375 1079.36328125 C-17.51607422 1080.22953125 -17.53605469 1081.09578125 -17.55664062 1081.98828125 C-17.55143364 1088.84067946 -15.85026514 1092.68727524 -11.59375 1098.1015625 C-8.32654108 1101.3167734 -4.92237288 1104.1159731 -1.22729492 1106.83642578 C5.66187038 1111.91756167 11.16798933 1116.91803048 13.94140625 1125.23828125 C14.16950068 1127.97259842 14.35783335 1130.68752878 14.50390625 1133.42578125 C14.58166998 1134.81943296 14.65973273 1136.21306801 14.73803711 1137.60668945 C14.80514893 1138.80511475 14.87226074 1140.00354004 14.94140625 1141.23828125 C33.30223802 1140.68092128 51.61678648 1139.84129915 69.94140625 1138.55078125 C71.15286316 1138.46591461 72.36432007 1138.38104797 73.61248779 1138.29360962 C114.84601094 1135.36261976 155.76720146 1130.11569066 196.58026123 1123.61273193 C198.70132724 1123.27635504 200.82322227 1122.94629903 202.94580078 1122.61962891 C251.0701369 1115.1324379 297.94738043 1100.96157537 343.85108948 1085.02290344 C349.83834858 1082.94937143 355.84142586 1080.93163636 361.86328125 1078.9609375 C363.0374334 1078.57657532 363.0374334 1078.57657532 364.23530579 1078.18444824 C365.0056163 1077.93231567 365.77592682 1077.68018311 366.56958008 1077.42041016 C382.27241546 1072.27929655 397.77819854 1066.83887195 412.94140625 1060.23828125 C413.72370605 1059.89877441 414.50600586 1059.55926758 415.31201172 1059.20947266 C445.73866287 1045.73337832 467.19116041 1018.27742162 481.94140625 989.23828125 C482.30459961 988.53493652 482.66779297 987.8315918 483.04199219 987.10693359 C493.51895444 966.65078331 499.05281938 945.63990232 499.25390625 922.67578125 C499.28291016 921.62970703 499.31191406 920.58363281 499.34179688 919.50585938 C499.50553467 898.00582779 493.42894482 876.53656373 488.37890625 855.80078125 C488.07215973 854.5340155 487.76541321 853.26724976 487.44937134 851.96209717 C480.85778943 824.85756017 473.47549756 798.28378799 460.94140625 773.23828125 C460.58900879 772.51866211 460.23661133 771.79904297 459.87353516 771.05761719 C439.27778678 729.22632561 406.28472985 692.90189539 361.81640625 676.67578125 C357.90714207 675.34739532 353.94286824 674.25083822 349.94140625 673.23828125 C349.09433105 673.02333008 348.24725586 672.80837891 347.37451172 672.58691406 C344.56789589 671.88812603 341.75670803 671.21367604 338.94140625 670.55078125 C337.66148804 670.24660278 337.66148804 670.24660278 336.35571289 669.9362793 C320.42112869 666.35522186 304.76595633 665.86817653 288.50390625 665.92578125 C287.43937225 665.92760406 286.37483826 665.92942688 285.27804565 665.93130493 C269.62565483 665.9764678 254.37765386 666.43570306 238.94140625 669.23828125 Z " fill="#000000" transform="translate(599.05859375,-0.23828125)"/>
<path d="M0 0 C0.72826996 0.00409882 1.45653992 0.00819763 2.20687866 0.01242065 C37.2405559 0.24329378 79.5647883 8.15314863 106.6875 32.25 C107.65623047 33.09691406 107.65623047 33.09691406 108.64453125 33.9609375 C114.72506913 39.61903802 118.15428243 46.02446781 119 54.3125 C118.48741724 60.77104279 116.28153051 66.85895423 112.6875 72.25 C107.95882895 73.83910573 102.65098491 73.44815201 97.7109375 73.48828125 C96.23409485 73.50317596 96.23409485 73.50317596 94.72741699 73.51837158 C70.71520592 73.7096459 47.41804243 72.95962898 23.6875 69.25 C22.64609863 69.08786011 21.60469727 68.92572021 20.53173828 68.75866699 C0.12773845 65.56953788 -20.25570627 62.23713698 -40.5859375 58.60546875 C-47.80990818 57.31571802 -55.05131144 56.18409985 -62.3125 55.125 C-63.44816406 54.95613281 -64.58382813 54.78726562 -65.75390625 54.61328125 C-71.93127579 53.70421296 -78.10191803 52.89474262 -84.3125 52.25 C-82.66066862 37.78223551 -76.02953653 26.40325909 -64.8125 17.1875 C-45.49759566 3.59132224 -23.18424295 -0.18594229 0 0 Z " fill="#FDDE00" transform="translate(477.3125,1081.75)"/>
<path d="M0 0 C4.84708211 4.48013751 8.47198512 8.89253544 9.3359375 15.61328125 C9.42786806 21.96568312 9.01753016 26.90765008 5 32 C-7.81931473 45.18839289 -27.44392521 48.23326502 -45 50 C-45.84377197 50.08902588 -46.68754395 50.17805176 -47.55688477 50.26977539 C-57.68003969 51.19958007 -67.80425642 51.18610545 -77.96264648 51.18530273 C-81.03188181 51.1874783 -84.10075029 51.20566235 -87.16992188 51.22460938 C-140.43398249 51.37642215 -140.43398249 51.37642215 -157 37 C-159.6868541 33.41752787 -159.57133234 29.28870251 -159 25 C-156.5526493 15.24344755 -150.07480274 5.61446533 -142 -0.375 C-129.28728763 -7.84015062 -114.33900302 -10.57582366 -100 -13 C-98.15148437 -13.3403125 -98.15148437 -13.3403125 -96.265625 -13.6875 C-66.9035016 -18.30337966 -24.77800667 -18.54526734 0 0 Z " fill="#010100" transform="translate(904,367)"/>
<path d="M0 0 C4.45352825 1.60495673 5.9055862 2.67989861 8 7 C24.37842221 44.91058794 23.92590159 89.2918202 9.25 127.75 C-1.54828332 152.9644058 -17.2248779 176.39576227 -43.3125 187.4375 C-61.45183404 194.3780585 -82.62586928 192.23102341 -100.1875 184.8125 C-119.5678191 176.09713123 -130.9627311 160.64753044 -138.53515625 141.20703125 C-143.88065221 125.95520332 -147.14484141 110.10881561 -147.16796875 93.93359375 C-147.17129715 93.09643326 -147.17462555 92.25927277 -147.17805481 91.39674377 C-147.18308386 89.63453718 -147.18546439 87.87232119 -147.18530273 86.11010742 C-147.18747458 83.4684196 -147.20563333 80.82716032 -147.22460938 78.18554688 C-147.29395082 57.31389311 -146.58877987 30.98597484 -133 14 C-131.3507126 12.6452282 -129.68596725 11.308843 -128 10 C-127.62253412 43.49283769 -127.62253412 43.49283769 -129 57.125 C-129.99723356 67.48632737 -130.28436831 77.81591719 -130.35449219 88.21893311 C-130.36790182 89.99654802 -130.38812695 91.77412799 -130.41601562 93.55157471 C-130.6322957 108.47312158 -129.62234371 124.11243572 -122.3125 137.5 C-121.97798828 138.14598145 -121.64347656 138.79196289 -121.29882812 139.45751953 C-118.44114062 144.72950564 -114.94022911 148.94132572 -110.6875 153.1796875 C-109 155 -109 155 -109 157 C-108.40832031 157.24878906 -107.81664062 157.49757813 -107.20703125 157.75390625 C-104.69564254 159.17184076 -103.4952105 160.70591255 -101.6875 162.9375 C-94.50625336 170.23799243 -83.42761755 170.255874 -73.6875 170.4375 C-55.54763223 170.28969984 -40.50380842 164.9237817 -27.23828125 152.29296875 C-11.01418223 135.67246941 -4.63624446 112.39394452 -1 90 C-0.83008545 89.15236084 -0.6601709 88.30472168 -0.48510742 87.43139648 C1.613154 75.58025991 1.26513514 63.62964673 1.20581055 51.63452148 C1.18762677 47.83896076 1.18530103 44.04364656 1.18554688 40.24804688 C1.16543672 26.80160677 0.90560125 13.41727974 0 0 Z " fill="#010101" transform="translate(289,674)"/>
<path d="M0 0 C15.15400715 -1.8289319 30.05359008 5.21379873 41.6875 14.25 C47.23521741 18.93809979 52.7163727 24.43274541 56 31 C56.24213841 34.76555753 56.18520111 38.54002766 56.1875 42.3125 C56.19974609 43.35857422 56.21199219 44.40464844 56.22460938 45.48242188 C56.22654297 46.49498047 56.22847656 47.50753906 56.23046875 48.55078125 C56.23457764 49.47544189 56.23868652 50.40010254 56.24291992 51.3527832 C55.97490999 54.27341804 55.33583249 56.39248919 54 59 C51.46875 60.171875 51.46875 60.171875 48 61 C47.01193359 61.25620117 47.01193359 61.25620117 46.00390625 61.51757812 C10.46252331 70.48100247 -28.37540208 74.41899248 -65 74 C-61.47223107 70.18128105 -57.43382236 67.29185768 -53.25 64.25 C-47.34130706 59.89073605 -41.97490079 55.42366761 -37 50 C-36.195625 49.21625 -35.39125 48.4325 -34.5625 47.625 C-21.88101361 34.63420906 -12.32858055 20.30188139 -3.078125 4.77075195 C-2.09392751 3.15426999 -1.04978513 1.57467769 0 0 Z " fill="#FDDE00" transform="translate(1095,996)"/>
<path d="M0 0 C1.31640625 2.21484375 1.31640625 2.21484375 2 4 C-17.19283814 18.44666992 -38.60105238 21.42196073 -62.125 21.375 C-63.31974945 21.37667679 -63.31974945 21.37667679 -64.53863525 21.37838745 C-88.09633698 21.36242734 -111.64731896 18.98758876 -135 16 C-134.52583422 11.02125936 -133.0900669 7.93281242 -130 4 C-129.34 4 -128.68 4 -128 4 C-128 3.34 -128 2.68 -128 2 C-97.39400015 -21.91846839 -31.26028171 -24.5577257 0 0 Z " fill="#FCDE00" transform="translate(896,382)"/>
<path d="M0 0 C1.34771484 -0.04350586 1.34771484 -0.04350586 2.72265625 -0.08789062 C8.82589946 -0.14563601 13.42758518 0.79625571 18.5 4.3125 C21.67151079 7.7218741 22.74805676 10.31320681 22.9375 14.875 C22.63614775 20.50652018 20.4822612 23.53598561 16.5 27.375 C7.3529927 34.70396858 -3.23260724 35.33371837 -14.50634766 34.54003906 C-20.39017899 33.868507 -24.59630258 31.63482539 -28.5 27.25 C-32.13224013 21.91514731 -32.27323987 16.5973217 -31.5 10.3125 C-29.76355859 6.26350812 -26.66770956 4.15645802 -22.6875 2.5 C-15.49848307 -0.02918506 -7.53202589 0.08104762 0 0 Z " fill="#000001" transform="translate(608.5,343.6875)"/>
<path d="M0 0 C0.96421875 -0.02900391 1.9284375 -0.05800781 2.921875 -0.08789062 C9.22346627 -0.14354327 14.02271736 0.63505097 19.25 4.3125 C22.38942137 7.69341532 24.14432816 9.93876605 24.5 14.5625 C24.11910521 20.27592185 22.20134483 23.66353653 18.0625 27.5 C9.10242639 34.72098759 -2.68716451 35.19995823 -13.75 34.3125 C-19.11305048 32.96123532 -24.5239181 31.01720276 -27.75 26.3125 C-29.83223687 21.1564849 -30.38208125 16.6194662 -28.75 11.3125 C-24.96366785 5.15971026 -19.74055103 2.76616204 -12.92114258 0.77978516 C-8.67482986 -0.13412945 -4.32728036 0.04270342 0 0 Z " fill="#010101" transform="translate(959.75,319.6875)"/>
<path d="M0 0 C4.20721235 4.20721235 4.29381403 10.31946405 4.3125 16 C4.14959262 32.71759621 -1.57520287 49.02025461 -6 65 C-6.33 65 -6.66 65 -7 65 C-8.24811474 48.10422451 -4.99994486 31.73501651 -2.02799988 15.17530823 C-1.13752916 10.13498621 -0.51375151 5.09210365 0 0 Z " fill="#363A4E" transform="translate(140,664)"/>
<path d="M0 0 C0.66 0 1.32 0 2 0 C7.53401073 13.73707972 9.7754108 28.32659842 12.41503906 42.82470703 C12.91813521 45.55562045 13.44645523 48.27893754 14 51 C5.32451147 43.01560971 0.41248615 30.16867957 -0.11572266 18.42773438 C-0.24523687 12.28265342 -0.1683526 6.143575 0 0 Z " fill="#363A4E" transform="translate(67,906)"/>
<path d="M0 0 C4.6302641 0.72252473 6.49034223 3.27407006 9.3828125 6.75 C13.25390377 12.13586611 14.62682561 17.3556485 14 24 C13 26.9375 13 26.9375 12 29 C9.12889107 28.69238119 8.03731715 28.03618633 5.9375 26 C0.72495945 17.92896947 0.38868068 9.42215587 0 0 Z " fill="#35394D" transform="translate(83,898)"/>
</svg>
