<svg id="visual" viewBox="0 0 960 540" width="960" height="540" xmlns="http://www.w3.org/2000/svg" xmlns:xlink="http://www.w3.org/1999/xlink" version="1.1"><rect x="0" y="0" width="960" height="540" fill="#001b30"></rect><path d="M0 366L40 367C80 368 160 370 240 368.3C320 366.7 400 361.3 480 355C560 348.7 640 341.3 720 336.8C800 332.3 880 330.7 920 329.8L960 329L960 541L920 541C880 541 800 541 720 541C640 541 560 541 480 541C400 541 320 541 240 541C160 541 80 541 40 541L0 541Z" fill="#4facf7"></path><path d="M0 331L40 340C80 349 160 367 240 384.3C320 401.7 400 418.3 480 430.2C560 442 640 449 720 441.7C800 434.3 880 412.7 920 401.8L960 391L960 541L920 541C880 541 800 541 720 541C640 541 560 541 480 541C400 541 320 541 240 541C160 541 80 541 40 541L0 541Z" fill="#1394fe"></path><path d="M0 365L40 371.8C80 378.7 160 392.3 240 402.3C320 412.3 400 418.7 480 418C560 417.3 640 409.7 720 410.8C800 412 880 422 920 427L960 432L960 541L920 541C880 541 800 541 720 541C640 541 560 541 480 541C400 541 320 541 240 541C160 541 80 541 40 541L0 541Z" fill="#0079ff"></path><path d="M0 430L40 436.8C80 443.7 160 457.3 240 453.8C320 450.3 400 429.7 480 425C560 420.3 640 431.7 720 443.2C800 454.7 880 466.3 920 472.2L960 478L960 541L920 541C880 541 800 541 720 541C640 541 560 541 480 541C400 541 320 541 240 541C160 541 80 541 40 541L0 541Z" fill="#2856ff"></path><path d="M0 523L40 524.3C80 525.7 160 528.3 240 525C320 521.7 400 512.3 480 508.8C560 505.3 640 507.7 720 513.2C800 518.7 880 527.3 920 531.7L960 536L960 541L920 541C880 541 800 541 720 541C640 541 560 541 480 541C400 541 320 541 240 541C160 541 80 541 40 541L0 541Z" fill="#6600ff"></path></svg>